<?xml version="1.0" encoding="UTF-8" standalone="no"?>
<!DOCTYPE svg PUBLIC "-//W3C//DTD SVG 1.1//EN" "http://www.w3.org/Graphics/SVG/1.1/DTD/svg11.dtd">
<svg width="100%" height="100%" viewBox="0 0 30 30" version="1.1" xmlns="http://www.w3.org/2000/svg" xmlns:xlink="http://www.w3.org/1999/xlink" xml:space="preserve" xmlns:serif="http://www.serif.com/" style="fill-rule:evenodd;clip-rule:evenodd;stroke-linejoin:round;stroke-miterlimit:1.41421;">
    <g transform="matrix(0.698081,0,0,0.739224,4.7317,6.89453)">
        <path d="M29.8,6.062C30.488,6.062 31.047,6.621 31.047,7.309L31.047,20.87C31.047,21.558 30.488,22.116 29.8,22.116C29.8,22.116 3.275,22.116 3.275,22.116L6.636,26.359C7.123,26.846 7.123,27.636 6.636,28.122L6.129,28.699C5.642,29.186 4.853,29.186 4.366,28.699L-3.771,20.562C-4.029,20.304 -4.15,19.961 -4.135,19.623C-4.15,19.285 -4.029,18.942 -3.771,18.684L4.366,10.547C4.853,10.06 5.642,10.06 6.129,10.547C6.129,10.547 6.679,11.159 6.667,11.153C7.165,11.645 7.165,12.435 6.667,12.916C6.679,12.921 3.374,17.13 3.374,17.13L26.666,17.13L26.666,7.309C26.666,6.621 27.225,6.062 27.913,6.062L29.8,6.062Z"/>
    </g>
</svg>
